<svg width="107" height="32" viewBox="0 0 107 32" fill="none" xmlns="http://www.w3.org/2000/svg">
<path d="M1.68 25V7.72H4.608L10.32 19.192L16.032 7.72H18.96V25H15.912V14.68L10.896 25H9.744L4.728 14.68V25H1.68ZM24.72 25.36C23.792 25.36 23.006 25.182 22.362 24.826C21.718 24.47 21.23 23.994 20.898 23.398C20.566 22.802 20.4 22.144 20.4 21.424C20.4 20.824 20.492 20.276 20.676 19.78C20.86 19.284 21.158 18.846 21.57 18.466C21.982 18.086 22.536 17.768 23.232 17.512C23.712 17.336 24.284 17.18 24.948 17.044C25.612 16.908 26.364 16.778 27.204 16.654C28.044 16.53 28.968 16.392 29.976 16.24L28.8 16.888C28.8 16.12 28.616 15.556 28.248 15.196C27.88 14.836 27.264 14.656 26.4 14.656C25.92 14.656 25.42 14.772 24.9 15.004C24.38 15.236 24.016 15.648 23.808 16.24L20.856 15.304C21.184 14.232 21.8 13.36 22.704 12.688C23.608 12.016 24.84 11.68 26.4 11.68C27.544 11.68 28.56 11.856 29.448 12.208C30.336 12.56 31.008 13.168 31.464 14.032C31.72 14.512 31.872 14.992 31.92 15.472C31.968 15.952 31.992 16.488 31.992 17.08V25H29.136V22.336L29.544 22.888C28.912 23.76 28.23 24.39 27.498 24.778C26.766 25.166 25.84 25.36 24.72 25.36ZM25.416 22.792C26.016 22.792 26.522 22.686 26.934 22.474C27.346 22.262 27.674 22.02 27.918 21.748C28.162 21.476 28.328 21.248 28.416 21.064C28.584 20.712 28.682 20.302 28.71 19.834C28.738 19.366 28.752 18.976 28.752 18.664L29.712 18.904C28.744 19.064 27.96 19.198 27.36 19.306C26.76 19.414 26.276 19.512 25.908 19.6C25.54 19.688 25.216 19.784 24.936 19.888C24.616 20.016 24.358 20.154 24.162 20.302C23.966 20.45 23.822 20.612 23.73 20.788C23.638 20.964 23.592 21.16 23.592 21.376C23.592 21.672 23.666 21.926 23.814 22.138C23.962 22.35 24.172 22.512 24.444 22.624C24.716 22.736 25.04 22.792 25.416 22.792ZM41.688 25C40.792 25.168 39.914 25.242 39.054 25.222C38.194 25.202 37.426 25.05 36.75 24.766C36.074 24.482 35.56 24.024 35.208 23.392C34.888 22.8 34.72 22.198 34.704 21.586C34.688 20.974 34.68 20.28 34.68 19.504V8.44H37.944V19.312C37.944 19.816 37.95 20.27 37.962 20.674C37.974 21.078 38.056 21.4 38.208 21.64C38.496 22.096 38.956 22.344 39.588 22.384C40.22 22.424 40.92 22.392 41.688 22.288V25ZM32.472 14.56V12.04H41.688V14.56H32.472ZM48.36 25.36C47.016 25.36 45.864 25.06 44.904 24.46C43.944 23.86 43.208 23.044 42.696 22.012C42.184 20.98 41.928 19.816 41.928 18.52C41.928 17.208 42.194 16.036 42.726 15.004C43.258 13.972 44.008 13.16 44.976 12.568C45.944 11.976 47.088 11.68 48.408 11.68C49.936 11.68 51.218 12.066 52.254 12.838C53.29 13.61 53.952 14.664 54.24 16L50.976 16.864C50.784 16.192 50.45 15.668 49.974 15.292C49.498 14.916 48.96 14.728 48.36 14.728C47.672 14.728 47.108 14.894 46.668 15.226C46.228 15.558 45.904 16.01 45.696 16.582C45.488 17.154 45.384 17.8 45.384 18.52C45.384 19.648 45.634 20.562 46.134 21.262C46.634 21.962 47.376 22.312 48.36 22.312C49.096 22.312 49.656 22.144 50.04 21.808C50.424 21.472 50.712 20.992 50.904 20.368L54.24 21.064C53.872 22.44 53.176 23.5 52.152 24.244C51.128 24.988 49.864 25.36 48.36 25.36ZM64.272 25V18.88C64.272 18.584 64.256 18.206 64.224 17.746C64.192 17.286 64.092 16.824 63.924 16.36C63.756 15.896 63.482 15.508 63.102 15.196C62.722 14.884 62.184 14.728 61.488 14.728C61.208 14.728 60.908 14.772 60.588 14.86C60.268 14.948 59.968 15.118 59.688 15.37C59.408 15.622 59.178 15.992 58.998 16.48C58.818 16.968 58.728 17.616 58.728 18.424L56.856 17.536C56.856 16.512 57.064 15.552 57.48 14.656C57.896 13.76 58.522 13.036 59.358 12.484C60.194 11.932 61.248 11.656 62.52 11.656C63.536 11.656 64.364 11.828 65.004 12.172C65.644 12.516 66.142 12.952 66.498 13.48C66.854 14.008 67.108 14.558 67.26 15.13C67.412 15.702 67.504 16.224 67.536 16.696C67.568 17.168 67.584 17.512 67.584 17.728V25H64.272ZM55.416 25V7.72H58.32V16.6H58.728V25H55.416ZM69.744 10.24V7.36H73.008V10.24H69.744ZM69.744 25V12.04H73.008V25H69.744ZM76.488 25V12.088C76.488 11.76 76.496 11.388 76.512 10.972C76.528 10.556 76.594 10.136 76.71 9.712C76.826 9.288 77.04 8.904 77.352 8.56C77.752 8.112 78.186 7.806 78.654 7.642C79.122 7.478 79.576 7.39 80.016 7.378C80.456 7.366 80.832 7.36 81.144 7.36H82.752V10H81.264C80.752 10 80.372 10.13 80.124 10.39C79.876 10.65 79.752 10.96 79.752 11.32V25H76.488ZM74.448 14.56V12.04H82.752V14.56H74.448ZM85.128 30.76L87.624 23.896L87.672 25.912L82.032 12.04H85.416L89.208 21.856H88.44L92.208 12.04H95.472L88.152 30.76H85.128ZM99.864 21.76V17.608H95.712V15.088H99.864V10.96H102.384V15.088H106.512V17.608H102.384V21.76H99.864Z" fill="url(#paint0_linear_1_290)"/>
<defs>
<linearGradient id="paint0_linear_1_290" x1="0" y1="16" x2="105.06" y2="16" gradientUnits="userSpaceOnUse">
<stop stop-color="#FF89AC"/>
<stop offset="1" stop-color="#B78EFE"/>
</linearGradient>
</defs>
</svg>
